<svg width="32" height="32" viewBox="0 0 32 32" fill="none" xmlns="http://www.w3.org/2000/svg">
<circle cx="16" cy="16" r="15" fill="black"/>
<path d="M24.5385 21.8776L24.9888 23.694C24.9962 23.7239 25 23.7547 25 23.7856C24.6021 24.6154 20.9203 28 16.0112 28C11.1021 28 7.42028 24.6154 7 23.6926L7.4503 21.8762C7.66427 20.9958 8.31158 20.2878 9.16444 20.0015L12.4959 18.8859C12.6347 18.8274 12.7604 18.7382 12.8737 18.6283C12.8838 18.7684 12.9507 19.0645 13.1125 19.4414C13.1928 19.6285 13.337 19.9896 13.5161 20.4382C13.9353 21.4879 14.546 23.0174 14.979 23.9218C14.979 22.3637 15.2439 21.6959 15.6854 21.2507L15.0673 20.3157C15.1703 20.2119 15.6854 19.648 15.6854 19.648C14.8471 19.0985 13.7765 18.2392 13.4058 17.8108C13.5851 17.4029 13.6865 16.9874 13.7238 16.7532C13.107 16.2388 12.7099 15.505 12.6145 14.7037C12.6145 14.4357 12.5357 14.326 12.4937 14.3048C12.3863 14.2768 12.301 14.1945 12.2685 14.0876C12.0524 13.5597 11.9167 13.0019 11.8662 12.4331C11.8661 12.4023 11.8699 12.3715 11.8775 12.3415C11.9312 12.1206 12.06 11.9257 12.2415 11.7906V9.78419C12.3235 7.72949 13.9565 6.08273 15.994 6C18.2906 6 18.9142 7.18748 18.9885 7.77475C19.3772 8.06464 19.7465 8.56489 19.7465 9.78415V11.7905C19.9279 11.9257 20.0567 12.1206 20.1105 12.3415C20.1181 12.3714 20.1218 12.4022 20.1217 12.4331C20.0712 13.0016 19.9355 13.5591 19.7195 14.0868C19.6749 14.1997 19.5791 14.2842 19.4621 14.3138C19.3897 14.43 19.3577 14.5671 19.3713 14.7036C19.2764 15.5027 18.8816 16.2348 18.268 16.7493C18.3067 16.9905 18.4135 17.4233 18.6055 17.8433C18.2109 18.2814 17.1723 19.112 16.3547 19.648C16.3547 19.648 16.8697 20.2119 16.9727 20.3157L16.3547 21.2507C16.7961 21.6959 17.061 22.3637 17.061 23.9218C17.494 23.0174 18.1048 21.4879 18.5239 20.4382C18.7031 19.9895 18.8472 19.6285 18.9276 19.4414C19.0785 19.0898 19.1469 18.8085 19.1636 18.6586C19.2718 18.7568 19.3908 18.8371 19.5214 18.8919L22.8236 20.0015C23.6771 20.2878 24.3249 20.9965 24.5385 21.8776Z" fill="white" fill-opacity="0.5"/>
</svg>
