<svg viewBox="0 0 18 22" fill="none" xmlns="http://www.w3.org/2000/svg">
<path d="M17.5385 15.8776L17.9888 17.694C17.9962 17.7239 18 17.7547 18 17.7856C17.6021 18.6154 13.9203 22 9.01119 22C4.1021 22 0.420277 18.6154 0 17.6926L0.450302 15.8762C0.664267 14.9958 1.31158 14.2878 2.16444 14.0015L5.49594 12.8859C5.63471 12.8274 5.76039 12.7382 5.8737 12.6283C5.8838 12.7684 5.95072 13.0645 6.11249 13.4414C6.19282 13.6285 6.33702 13.9896 6.51614 14.4382C6.93531 15.4879 7.54604 17.0174 7.97904 17.9218C7.97904 16.3637 8.24392 15.6959 8.6854 15.2507L8.06734 14.3157C8.17035 14.2119 8.6854 13.648 8.6854 13.648C7.84714 13.0985 6.7765 12.2392 6.40583 11.8108C6.58508 11.4029 6.68651 10.9874 6.72375 10.7532C6.10698 10.2388 5.70987 9.505 5.6145 8.70366C5.6145 8.43573 5.5357 8.32597 5.49366 8.3048C5.38625 8.2768 5.30101 8.19453 5.2685 8.08757C5.05236 7.55971 4.91674 7.00192 4.86622 6.43312C4.86612 6.40225 4.86988 6.37146 4.87748 6.34155C4.93123 6.12064 5.06003 5.9257 5.24149 5.79057V3.78419C5.32352 1.72949 6.9565 0.0827344 8.99402 0C11.2906 0 11.9142 1.18748 11.9885 1.77475C12.3772 2.06464 12.7465 2.56489 12.7465 3.78415V5.79053C12.9279 5.92566 13.0567 6.1206 13.1105 6.34152C13.1181 6.37142 13.1218 6.40218 13.1217 6.43308C13.0712 7.00159 12.9355 7.55914 12.7195 8.08675C12.6749 8.19975 12.5791 8.28425 12.4621 8.31381C12.3897 8.42995 12.3577 8.56711 12.3713 8.70358C12.2764 9.50266 11.8816 10.2348 11.268 10.7493C11.3067 10.9905 11.4135 11.4233 11.6055 11.8433C11.2109 12.2814 10.1723 13.112 9.35467 13.648C9.35467 13.648 9.86972 14.2119 9.97273 14.3157L9.35467 15.2507C9.79614 15.6959 10.061 16.3637 10.061 17.9218C10.494 17.0174 11.1048 15.4879 11.5239 14.4382C11.7031 13.9895 11.8472 13.6285 11.9276 13.4414C12.0785 13.0898 12.1469 12.8085 12.1636 12.6586C12.2718 12.7568 12.3908 12.8371 12.5214 12.8919L15.8236 14.0015C16.6771 14.2878 17.3249 14.9965 17.5385 15.8776Z" fill="white" fill-opacity="0.5"/>
</svg>
